<svg width="20" height="20" viewBox="0 0 20 20" fill="none" xmlns="http://www.w3.org/2000/svg">
<g clip-path="url(#clip0_161_36459)">
<path d="M14.5 7.5H13.75V6.07143C13.75 4.1 12.07 2.5 10 2.5C7.93 2.5 6.25 4.1 6.25 6.07143V7.5H5.5C4.675 7.5 4 8.14286 4 8.92857V16.0714C4 16.8571 4.675 17.5 5.5 17.5H14.5C15.325 17.5 16 16.8571 16 16.0714V8.92857C16 8.14286 15.325 7.5 14.5 7.5ZM10 13.9286C9.175 13.9286 8.5 13.2857 8.5 12.5C8.5 11.7143 9.175 11.0714 10 11.0714C10.825 11.0714 11.5 11.7143 11.5 12.5C11.5 13.2857 10.825 13.9286 10 13.9286ZM7.75 7.5V6.07143C7.75 4.88571 8.755 3.92857 10 3.92857C11.245 3.92857 12.25 4.88571 12.25 6.07143V7.5H7.75Z" fill="white"/>
</g>
<defs>
<clipPath id="clip0_161_36459">
<rect width="20" height="20" fill="white"/>
</clipPath>
</defs>
</svg>
