<svg width="200" height="43" viewBox="0 0 200 43" fill="none" xmlns="http://www.w3.org/2000/svg">
<g clip-path="url(#clip0_394_39975)">
<path d="M83.7845 8.21055L83.5742 8.08897C82.8591 7.429 81.8683 7.14243 80.541 7.2119C79.438 7.27703 78.5593 7.68083 77.891 8.05858C77.891 8.0499 77.891 8.04121 77.891 8.03253C77.891 7.71123 77.933 7.36387 77.9704 7.0252C78.0078 6.68219 78.0499 6.33049 78.0499 6.00051C78.0499 5.67052 78.0078 5.34053 77.8816 5.06699C77.8489 4.99752 77.7788 4.9541 77.6947 4.9541C77.3348 4.96279 76.6384 5.18857 76.4701 5.32751L76.3767 5.51421C76.372 5.87893 76.2832 6.90797 76.1944 7.02954L76.1477 7.15546C75.9981 8.62303 75.9934 9.90824 76.1336 11.0154C76.1477 11.124 76.3767 11.2933 76.5543 11.3541C76.7459 11.4192 77.3535 11.2673 77.704 11.1457L77.8349 11.1283C77.947 11.1153 78.0125 11.0285 78.0031 10.9112L78.0125 10.5943C78.2649 9.63904 79.2884 8.50146 80.4989 8.32778C81.1812 8.22791 81.7234 8.38857 82.1487 8.82276C82.2048 8.90091 82.331 9.58694 81.8776 10.3772C81.5411 10.9633 80.8681 11.454 79.9895 11.7622C79.1529 12.0575 78.2321 12.1747 77.0964 12.14C77.0497 12.1096 76.0308 11.4713 76.0308 11.4713C75.1335 10.8852 74.0118 10.1514 72.9976 9.79535C72.82 9.73456 72.5022 9.48707 72.3105 9.33945L72.2077 9.26129C71.6235 8.8271 70.5112 8.13673 69.6138 7.58097C69.6138 7.58097 69.2119 7.32914 69.1324 7.28137C69.1324 7.25098 69.1324 7.18585 69.1324 7.18585C69.1558 7.1598 69.7166 6.84718 69.7166 6.84718C70.5018 6.42167 70.8664 6.20892 70.9458 6.10037C70.9318 6.11774 71.0486 6.04393 71.0486 6.04393C71.0533 6.04393 72.9976 5.01923 72.9976 5.01923C74.8671 4.06401 76.9889 2.97852 78.1059 1.90607L78.162 1.74108L78.1854 1.59345C78.2602 1.36333 78.2649 1.18965 78.2041 0.985581C78.1854 0.929136 78.1293 0.859665 78.0545 0.846639C77.1852 0.768484 76.0635 1.25044 75.04 2.14053C74.811 2.34026 74.6147 2.44013 74.409 2.54433L74.2548 2.62249C73.1284 3.21733 70.5906 4.68056 69.2633 5.47079C69.3521 4.14216 69.6138 2.25777 69.941 0.685988L69.9036 0.499285L69.768 0.260479L69.6652 0.0911438L69.6372 0.08246C69.3708 -0.0434559 69.1558 0.00864722 68.9969 0.0477246L68.7305 0.138905L68.3799 0.256137C68.3098 0.269163 68.2584 0.30824 68.2304 0.373369C67.5948 1.79752 67.0666 4.13782 66.9451 6.01353C65.6785 5.26238 64.5054 4.72832 63.9306 4.46781L63.9119 4.45912L63.8418 4.4461C63.6361 4.42004 63.3837 4.2811 63.1407 4.14216C63.1173 4.12914 62.6593 3.85125 62.6593 3.85125L61.9209 3.41272L61.7292 3.37364C61.4114 3.42574 60.8039 3.80349 60.6263 4.05967C60.6029 4.0944 60.5935 4.13348 60.5935 4.16821C60.5935 4.22032 60.6122 4.27676 60.6263 4.32886L60.659 4.46781L60.6917 4.5503C61.0422 4.88463 61.9349 5.44908 62.8089 5.88327L63.8231 6.3826L65.3701 7.16848L65.6365 7.36387L65.8187 7.46374C65.8187 7.46374 65.8374 7.47676 65.8515 7.4811C65.4402 7.73728 63.0332 9.2309 63.0332 9.2309L61.5516 10.1427C61.4114 10.2339 60.8272 10.477 60.6964 10.5248C60.3739 10.6464 60.1308 10.8331 60.0327 11.0371L59.9953 11.1153L60.0327 11.1674L60.1449 11.2456L60.2991 11.3367L60.4627 11.4409L60.6169 11.4626C60.8786 11.4713 61.2619 11.3324 61.9863 11.0415C62.65 10.7679 64.4494 9.76061 65.2158 9.33076L65.543 9.1484C65.6785 9.15709 65.8281 9.05288 65.959 8.95736C66.1132 8.84447 66.4497 8.65342 66.6553 8.56658C66.66 8.56658 66.7769 8.5058 66.889 8.44935C66.889 8.47975 66.889 8.53185 66.889 8.53185C66.9217 10.7202 67.062 12.3093 67.3143 13.5337V13.5555L67.3424 13.6032C67.4686 13.7769 67.6135 14.2936 67.7396 14.7538L68.0341 15.6656L68.1182 15.7525C68.2865 15.8567 68.7959 16.039 69.1371 16.0043L69.2212 15.9956L69.2773 15.8827C69.3053 15.7481 69.3147 15.6135 69.3147 15.4659C69.3147 15.3009 69.3007 15.1142 69.2866 14.8884L69.2633 14.5584C69.1558 13.0344 69.0483 10.8287 69.0483 9.36116C69.0483 9.32208 69.0483 9.283 69.0483 9.24393C69.3287 9.40892 70.5485 10.121 70.5485 10.121C72.6284 11.3715 75.7644 13.2645 77.6619 13.7682C77.7601 13.7943 77.8629 13.7726 77.9377 13.7118L78.2321 13.5381L78.2835 13.5164C78.391 13.4686 78.4658 13.2993 78.4798 13.1126C80.0783 13.0388 82.3076 12.4656 83.5041 11.0719C83.9668 10.5335 84.1724 9.86916 84.1724 9.30471C84.1724 8.84013 84.0322 8.44067 83.7798 8.21923L83.7845 8.21055Z" fill="#FCAF16"/>
<path d="M130.223 13.1213V9.2179H131.695V11.9403H140V13.1213H130.223Z" fill="white"/>
<path d="M138.355 2.14929V8.01089H135.99V9.14414H138.355V10.1949H139.822V2.14929H138.355Z" fill="white"/>
<path d="M132.569 9.86486V7.34654H128.872V6.16554H134.948V3.53433H129.606V2.35767H136.425V6.15685H137.598V7.34654H134.041V9.86486H132.569Z" fill="white"/>
<path d="M127.895 6.95569H115.884V8.13235H127.895V6.95569Z" fill="white"/>
<path d="M121.997 12.496C120.146 12.496 118.655 12.0835 118.655 11.1587C118.655 10.2339 120.151 9.82139 121.997 9.82139C123.843 9.82139 125.339 10.2382 125.339 11.1587C125.339 12.0792 123.843 12.496 121.997 12.496ZM121.997 8.64038C119.305 8.64038 117.117 9.46969 117.117 11.1544C117.117 12.839 119.305 13.6683 121.997 13.6683C124.689 13.6683 126.876 12.826 126.876 11.1544C126.876 9.48272 124.689 8.64038 121.997 8.64038Z" fill="white"/>
<path d="M127.035 5.2624C126.75 5.24069 123.698 5.05398 122.941 3.50826H126.731V2.33594H117.155V3.50826H120.945C120.188 5.05398 117.136 5.24069 116.851 5.2624V6.3913C118.37 6.3088 120.66 5.90066 121.945 4.80215C123.231 5.90066 125.521 6.3088 127.04 6.3913V5.2624H127.035Z" fill="white"/>
<path d="M89.6874 2.24048H91.5569V7.11212L97.8524 2.24048H100.498L93.847 7.15554L101.049 13.1213H98.4039L91.5569 7.29014V13.1213H89.6874V2.24048Z" fill="white"/>
<path d="M109.948 7.43776V7.39435C111.261 7.1512 112.247 6.24808 112.247 4.93247C112.247 3.08715 110.817 2.24048 108.079 2.24048H102.325V13.1213H108.261C111.439 13.1213 112.72 11.7146 112.72 10.0907C112.72 8.79679 111.827 7.64618 109.943 7.43776H109.948ZM104.195 3.47793H107.775C109.929 3.47793 110.443 4.15527 110.443 5.1626C110.443 6.32189 109.401 6.82121 107.994 6.82121H104.199V3.47793H104.195ZM107.873 11.8839H104.195V8.05866H107.775C109.831 8.05866 110.766 8.74903 110.766 10.0038C110.766 11.0546 110.158 11.8882 107.873 11.8882V11.8839Z" fill="white"/>
</g>
<path d="M65.4207 38.118H50.3007V36.336H56.8347V33.402C54.3687 33.078 52.5327 31.584 52.5327 28.956C52.5327 25.986 54.8907 24.456 57.8607 24.456C60.8307 24.456 63.1887 25.986 63.1887 28.956C63.1887 31.566 61.3527 33.078 58.9047 33.402V36.336H65.4207V38.118ZM57.8607 26.202C55.9347 26.202 54.5667 27.192 54.5667 28.956C54.5667 30.72 55.9347 31.71 57.8607 31.71C59.7867 31.71 61.1547 30.72 61.1547 28.956C61.1547 27.192 59.7867 26.202 57.8607 26.202ZM76.7137 35.13C76.1377 35.274 74.8597 35.472 73.5457 35.562C71.8357 35.688 68.4877 35.706 66.1117 35.706V33.96H67.9297V28.146H69.9277V33.924C70.6837 33.924 71.4397 33.906 72.1057 33.888C72.3037 33.114 72.4837 32.016 72.4837 30.81V28.146H74.4817V30.684C74.4817 31.89 74.2657 33.024 74.0317 33.816C74.9137 33.78 75.7597 33.69 76.6057 33.582L76.7137 35.13ZM75.6697 31.17V29.406H78.0457V24.186H80.1157V40.638H78.0457V31.17H75.6697ZM66.5257 26.85V25.104H75.9217V26.85H66.5257ZM90.7427 29.568H85.1087V30.864C85.1087 31.152 85.2347 31.278 85.5227 31.278C86.5487 31.278 87.3227 31.26 88.3487 31.242C89.7707 31.206 91.0127 31.08 92.2187 30.864L92.3447 32.394C91.4447 32.646 89.9687 32.916 88.2947 32.97C87.1607 33.006 85.9907 33.024 84.8567 33.024C83.6507 33.024 83.0387 32.412 83.0387 31.206V27.858H88.6727V26.31H83.0387V24.564H90.3107C90.5987 24.564 90.7427 24.708 90.7427 24.996V29.568ZM95.7827 33.744H93.7127V24.186H95.7827V33.744ZM90.7067 41.358C87.7907 41.358 85.7387 40.026 85.7387 37.668C85.7387 35.31 87.7907 33.978 90.7067 33.978C93.6227 33.978 95.6747 35.31 95.6747 37.668C95.6747 40.026 93.6227 41.358 90.7067 41.358ZM90.7067 35.724C88.8347 35.724 87.7727 36.444 87.7727 37.668C87.7727 38.892 88.8347 39.612 90.7067 39.612C92.5787 39.612 93.6407 38.892 93.6407 37.668C93.6407 36.444 92.5787 35.724 90.7067 35.724ZM116.486 40.638H114.416V24.186H116.486V40.638ZM112.166 36.138C111.014 35.436 108.836 33.438 108.026 32.088C107.198 33.492 105.164 35.562 103.796 36.426L102.554 35.112C104.732 33.636 106.982 31.332 106.982 28.956V24.744H109.052V28.956C109.052 31.368 111.608 33.672 113.21 34.752L112.166 36.138ZM133.845 37.938H118.725V36.156H133.845V37.938ZM126.285 29.82C125.457 30.99 123.009 32.754 120.813 33.636L119.715 32.25C121.731 31.44 125.241 29.262 125.241 27.372V24.816H127.329V27.372C127.329 29.262 130.839 31.44 132.855 32.25L131.757 33.636C129.561 32.754 127.113 30.99 126.285 29.82ZM139.702 40.818C138.496 40.818 137.884 40.206 137.884 39V34.644H148.702V40.386C148.702 40.674 148.558 40.818 148.27 40.818H139.702ZM135.256 25.086C135.256 24.798 135.4 24.654 135.688 24.654H141.664V26.4H137.254V27.948H140.836V29.658H137.254V30.954C137.254 31.242 137.38 31.368 137.668 31.368C138.514 31.368 139 31.368 139.756 31.332C140.854 31.278 141.502 31.224 142.564 31.062L142.708 32.628C141.754 32.844 140.89 32.988 139.72 33.06C138.82 33.114 138.028 33.114 137.074 33.114C135.868 33.114 135.256 32.502 135.256 31.296V25.086ZM145.606 33.51H143.68V29.334H141.754V27.57H143.68V24.276H145.606V33.51ZM146.83 24.186H148.792V33.51H146.83V24.186ZM146.668 39.072V36.39H139.918V38.658C139.918 38.946 140.044 39.072 140.332 39.072H146.668Z" fill="white"/>
<defs>
<clipPath id="clip0_394_39975">
<rect width="80" height="16" fill="white" transform="translate(60)"/>
</clipPath>
</defs>
</svg>
